<svg width="35" height="41" viewBox="0 0 35 41" fill="none" xmlns="http://www.w3.org/2000/svg">
<g clip-path="url(#clip0_7_858)">
<path d="M17.4989 0L12.8208 3.56233V12.7094L17.4989 9.14709L27.6648 16.8894V29.1442C27.6648 31.6856 25.5722 33.7552 22.9976 33.7552H11.9981C9.42566 33.7552 7.33083 31.6878 7.33083 29.1442V16.8894L7.33517 16.8851V7.73803L0 13.3292V29.1463C0 35.6833 5.38361 41.0021 12.0002 41.0021H22.9998C29.6164 41.0021 35 35.6833 35 29.1463V13.3292L17.4989 0Z" fill="#1D2340"/>
<path d="M17.4989 27.868C20.3752 27.868 22.2921 25.8069 22.2921 22.7422C22.2921 19.6774 20.3752 17.6721 17.4989 17.6721C14.6226 17.6721 12.7058 19.6774 12.7058 22.7422C12.7058 25.8069 14.7355 27.868 17.4989 27.868Z" fill="#1D2340"/>
</g>
<defs>
<clipPath id="clip0_7_858">
<rect width="35" height="41" fill="white"/>
</clipPath>
</defs>
</svg>
