<svg width="120" height="45" viewBox="0 0 120 45" fill="none" xmlns="http://www.w3.org/2000/svg">
<g clip-path="url(#clip0_1_5853)">
<path d="M89.0391 16.7216V24.5394C88.569 24.2828 87.7988 24.1129 86.7737 24.1129C84.6368 24.1129 83.0132 25.3942 83.0132 28.1284V38.637H74.4653V17.1481H82.3298V22.7864C83.1416 18.686 85.1502 16.4632 87.5005 16.4632C88.1839 16.4632 88.7408 16.5915 89.0391 16.7198V16.7216Z" fill="#E8DAB2"/>
<path d="M91.7835 10.6116C91.7835 7.8774 93.7922 6.25457 96.3992 6.25457C99.0062 6.25457 101.058 7.8774 101.058 10.6116C101.058 13.3459 99.093 14.9271 96.3992 14.9271C93.7054 14.9271 91.7835 13.4326 91.7835 10.6116ZM92.1252 17.1481H100.673V38.637H92.1252V17.1481Z" fill="#E8DAB2"/>
<path d="M103.801 27.8627C103.801 21.4546 108.203 16.456 115.298 16.456C117.221 16.456 118.845 16.7975 119.998 17.3523L119.913 24.9984C119.23 24.5719 118.375 24.102 116.836 24.102C114.016 24.102 112.647 25.7682 112.647 27.8609C112.647 30.1253 114.057 31.6632 116.836 31.6632C118.331 31.6632 119.23 31.1933 119.913 30.8084L119.998 38.3695C118.93 38.8828 117.093 39.3093 115.169 39.3093C108.118 39.3093 103.801 34.3107 103.801 27.8609V27.8627Z" fill="#E8DAB2"/>
<path d="M62.0375 16.456C59.3021 16.456 57.2501 17.6523 56.1401 19.7034V6.58709H48.0622V26.9212C48.0622 34.4824 52.7213 39.3093 59.6023 39.3093C66.4833 39.3093 71.4406 34.3107 71.4406 27.3911C71.4406 20.9829 67.295 16.4542 62.0375 16.4542V16.456ZM59.8156 31.7499C57.722 31.7499 56.1834 30.1271 56.1834 27.8194C56.1834 25.5116 57.6786 23.9322 59.8156 23.9322C61.9526 23.9322 63.4477 25.4701 63.4477 27.8194C63.4477 30.1687 61.9942 31.7499 59.8156 31.7499Z" fill="#E8DAB2"/>
<path d="M18.9833 0L13.9103 3.90888V13.9494L18.9833 10.0406L30.0118 18.5396V31.9885C30.0118 34.7787 27.741 37.0485 24.9495 37.0485H13.0171C10.2257 37.0485 7.95492 34.7787 7.95492 31.9885V18.5396L7.96035 18.536V8.49544L0 14.6289V31.9885C0 39.1629 5.83964 45 13.0171 45H24.9495C32.127 45 37.9667 39.1629 37.9667 31.9885V14.6289L18.9833 0Z" fill="#E8DAB2"/>
<path d="M18.9833 30.5861C22.1038 30.5861 24.183 28.3236 24.183 24.9623C24.183 21.6009 22.1038 19.398 18.9833 19.398C15.8628 19.398 13.7837 21.5991 13.7837 24.9623C13.7837 28.3254 15.9858 30.5861 18.9833 30.5861Z" fill="#E8DAB2"/>
</g>
<defs>
<clipPath id="clip0_1_5853">
<rect width="120" height="45" fill="white"/>
</clipPath>
</defs>
</svg>
